<svg xmlns="http://www.w3.org/2000/svg" fill="#7c90bd" viewBox="0 0 480 480" xmlns:v="https://vecta.io/nano"><path d="M456 240h-8V72c-.026-22.08-17.92-39.974-40-40H72c-22.08.026-39.974 17.92-40 40v120h-8c-13.255 0-24 10.745-24 24v208c0 13.255 10.745 24 24 24h304a8 8 0 0 0 8-8c-.026-22.08-17.92-39.974-40-40h-24v-48h96v72c0 13.255 10.745 24 24 24h64c13.255 0 24-10.745 24-24V264c0-13.255-10.745-24-24-24zM176 424a8 8 0 0 1-8 8H24a8 8 0 0 1-8-8v-8h160v8zm0-24H16V216a8 8 0 0 1 8-8h144a8 8 0 0 1 8 8v184zm120 16a24.05 24.05 0 0 1 22.632 16H190.528c.948-2.562 1.445-5.268 1.472-8v-8h104zm-104-16v-48h16v48h-16zm32 0v-48h32v48h-32zm144-64H192v-48h176v48zm0-72v8H192v-56c-.027-3.796-.966-7.53-2.736-10.888.12-.112.28-.144.392-.264l79.2-79.2a8 8 0 0 0-.196-11.312c-3.1-2.994-8.015-2.994-11.116 0l-79.2 79.2c-.192.2-.272.456-.44.664A23.7 23.7 0 0 0 168 192H48V72c0-13.255 10.745-24 24-24h336c13.255 0 24 10.745 24 24v168h-40c-13.255 0-24 10.745-24 24zm96 160a8 8 0 0 1-8 8h-64a8 8 0 0 1-8-8v-8h80v8zm0-24h-80V264a8 8 0 0 1 8-8h64a8 8 0 0 1 8 8v136zM95.592 289.376a8 8 0 0 0-11.312 0l-33.936 33.936A8 8 0 0 0 61.46 334.82l34.132-34.132c1.428-2.475-1.442-7.18 0-11.312zm47.804 0c-3.1-2.994-8.015-2.994-11.116 0l-33.936 33.936a8 8 0 0 0 11.116 11.508c.067-.064.132-.13.196-.196l33.936-33.936a8 8 0 0 0-.196-11.312zM317.46 114.344c-3.1-2.994-8.015-2.994-11.116 0l-79.2 79.2c-3.178 3.07-3.266 8.134-.197 11.312s8.134 3.266 11.312.197a7.32 7.32 0 0 0 .197-.197l79.2-79.2a8 8 0 0 0-.196-11.312zm123.312 196.688a8 8 0 0 0-11.116 0l-22.624 22.624a8 8 0 0 0 11.116 11.508l22.82-22.82a8 8 0 0 0-.196-11.312zM240.16 304h-.08c-4.418.022-7.982 3.622-7.96 8.04s3.622 7.982 8.04 7.96a8 8 0 1 0 0-16zM256 64h-32a8 8 0 1 0 0 16h32a8 8 0 1 0 0-16z"/></svg>